<?xml version="1.0" encoding="utf-8"?>
<!-- Generator: Adobe Illustrator 16.0.0, SVG Export Plug-In . SVG Version: 6.00 Build 0)  -->
<!DOCTYPE svg PUBLIC "-//W3C//DTD SVG 1.1//EN" "http://www.w3.org/Graphics/SVG/1.1/DTD/svg11.dtd">
<svg version="1.1" id="Layer_1" xmlns="http://www.w3.org/2000/svg" xmlns:xlink="http://www.w3.org/1999/xlink" x="0px" y="0px"
	 width="31px" height="35.125px" viewBox="0 0 31 35.125" enable-background="new 0 0 31 35.125" xml:space="preserve">
<path fill="#7F7F7F" d="M28,9.125h-5.812V6.688C22.188,3,19.188,0,15.5,0c-3.688,0-6.688,3-6.688,6.688v2.438H3l-3,26h31L28,9.125z
	 M9.812,6.688C9.812,3.551,12.363,1,15.5,1c3.136,0,5.688,2.551,5.688,5.688v2.438H9.812V6.688z M3.891,10.125h4.922v1.076
	C8.021,11.421,7.438,12.139,7.438,13c0,1.036,0.84,1.875,1.875,1.875s1.875-0.839,1.875-1.875c0-0.861-0.584-1.579-1.375-1.799
	v-1.076h11.375v1.076c-0.791,0.22-1.375,0.938-1.375,1.799c0,1.036,0.84,1.875,1.875,1.875s1.875-0.839,1.875-1.875
	c0-0.861-0.584-1.579-1.375-1.799v-1.076h4.922l2.77,24H1.122L3.891,10.125z"/>
</svg>
