<?xml version="1.0" encoding="utf-8"?>
<!-- Generator: Adobe Illustrator 16.0.0, SVG Export Plug-In . SVG Version: 6.00 Build 0)  -->
<!DOCTYPE svg PUBLIC "-//W3C//DTD SVG 1.1//EN" "http://www.w3.org/Graphics/SVG/1.1/DTD/svg11.dtd">
<svg version="1.1"
	 id="svg2" xmlns:sodipodi="http://sodipodi.sourceforge.net/DTD/sodipodi-0.dtd" xmlns:dc="http://purl.org/dc/elements/1.1/" xmlns:inkscape="http://www.inkscape.org/namespaces/inkscape" xmlns:rdf="http://www.w3.org/1999/02/22-rdf-syntax-ns#" xmlns:svg="http://www.w3.org/2000/svg" xmlns:cc="http://creativecommons.org/ns#"
	 xmlns="http://www.w3.org/2000/svg" xmlns:xlink="http://www.w3.org/1999/xlink" x="0px" y="0px" width="26px" height="26px"
	 viewBox="0 0 26 26" enable-background="new 0 0 26 26" xml:space="preserve">
<script  id="script3301" xlink:href=""></script>
<script  id="script3299" xlink:href=""></script>
<path id="path3538" fill="#FFFFFF" d="M18.696,25.833c-0.987-0.26-1.885-0.812-3.823-2.297c-1.953-1.504-5.074-4.04-7.5-6.917
	C4.946,13.74,3.23,10.554,2.313,8.602c-0.92-1.956-1.08-2.743-1.099-3.618C1.2,4.167,1.296,3.199,1.966,2.272
	c0.628-0.875,1.748-1.68,2.562-2.023C5.434-0.14,6.037,0.006,6.477,0.165c0.421,0.156,0.738,0.33,1.201,0.759
	C8.111,1.33,8.708,1.984,9.197,2.669c0.496,0.684,0.884,1.399,1.149,2.009c0.27,0.616,0.423,1.156,0.454,1.729
	c0.027,0.569-0.076,1.279-0.707,1.813C9.584,8.649,8.691,8.964,8.309,9.182C8.234,9.225,8.191,9.255,8.152,9.293
	C8.13,9.413,8.148,9.614,8.343,10.08c0.426,1.007,1.476,2.78,2.818,4.238c1.328,1.459,2.953,2.606,3.995,3.332
	c0.817,0.564,1.202,0.825,1.426,0.951l0.178,0.085l0.154-0.166c0.079-0.095,0.193-0.229,0.375-0.437
	c0.316-0.352,0.947-1.053,1.838-1.219c0.893-0.154,1.876,0.246,2.7,0.822c0.846,0.594,1.621,1.443,2.201,2.338
	c0.553,0.871,1.045,1.999,0.562,3.143c-0.451,1.062-1.69,1.98-2.746,2.425C20.725,26.07,19.68,26.096,18.696,25.833z"/>
</svg>
